# Blender 3.6.1
# www.blender.org
mtllib player_horny.mtl
o Cube
v 1.040055 9.114207 -2.015954
v 1.040061 9.114207 -17.984045
v 1.040055 10.885793 -2.015954
v 1.040061 10.885793 -17.984045
v -1.040061 9.114207 -2.015955
v -1.040055 9.114207 -17.984047
v -1.040061 10.885793 -2.015955
v -1.040055 10.885793 -17.984047
vn 1.0000 -0.0000 -0.0000
vn -0.0000 1.0000 -0.0000
vn -1.0000 -0.0000 -0.0000
vn -0.0000 -1.0000 -0.0000
vn -0.0000 -0.0000 1.0000
vn -0.0000 -0.0000 -1.0000
vt 0.260534 0.000000
vt 0.371479 1.000000
vt 0.260534 1.000000
vt 0.000000 0.000000
vt 0.130267 1.000000
vt 0.000000 1.000000
vt 0.371479 0.000000
vt 0.482425 1.000000
vt 0.130267 0.000000
vt 0.593370 0.130267
vt 0.482425 0.000000
vt 0.593370 -0.000000
vt 0.593370 0.260534
vt 0.482425 0.130267
vt 0.593370 0.130267
vt 0.482425 0.000000
vt 0.482425 0.260534
s 0
f 2/1/1 3/2/1 1/3/1
f 4/4/2 7/5/2 3/6/2
f 8/7/3 5/8/3 7/2/3
f 6/9/4 1/3/4 5/5/4
f 7/10/5 1/11/5 3/12/5
f 4/13/6 6/14/6 8/15/6
f 2/1/1 4/7/1 3/2/1
f 4/4/2 8/9/2 7/5/2
f 8/7/3 6/16/3 5/8/3
f 6/9/4 2/1/4 1/3/4
f 7/10/5 5/14/5 1/11/5
f 4/13/6 2/17/6 6/14/6
